<?xml version="1.0" encoding="utf-8"?>
<!-- Generator: Adobe Illustrator 25.0.0, SVG Export Plug-In . SVG Version: 6.00 Build 0)  -->
<svg version="1.1" id="Layer_1" xmlns="http://www.w3.org/2000/svg" xmlns:xlink="http://www.w3.org/1999/xlink" x="0px" y="0px"
	 viewBox="0 0 1200 600" style="enable-background:new 0 0 1200 600;" xml:space="preserve">
<style type="text/css">
	.st0{fill:#FFFFFF;}
	.st1{fill-rule:evenodd;clip-rule:evenodd;fill:#FFFFFF;}
	.st2{fill:#3C4043;}
	.st3{fill:#44494C;}
	.st4{fill:#FF0000;}
	.st5{fill:#282828;}
	.st6{fill:#3D4043;}
	.st7{fill:#FCBC00;}
	.st8{fill:#D0E1FA;}
	.st9{fill:#D8DADE;}
	.st10{fill:#34A653;}
	.st11{fill:#E6E8EB;}
	.st12{fill:#F9BA06;}
	.st13{fill:#FFB71C;}
	.st14{fill:#4C8DF3;}
	.st15{fill:#E8EAEC;}
	.st16{fill:#4283F2;}
	.st17{fill:#E74335;}
	.st18{fill:none;}
</style>
<rect x="-20" y="-20.25" class="st0" width="1246" height="643"/>
<g>
	<g>
		<g>
			<g>
				<path class="st1" d="M950.03,87.53v450.43c0,14.64-8.95,26.49-20,26.49H269.97c-11.03,0-20-11.85-20-26.49V87.53
					c0-14.64,8.97-26.49,20-26.49h660.06C941.08,61.04,950.03,72.9,950.03,87.53z"/>
				<path class="st2" d="M930.03,564.95H269.97c-11.3,0-20.5-12.11-20.5-26.99V87.53c0-14.88,9.19-26.99,20.5-26.99h660.06
					c11.3,0,20.5,12.11,20.5,26.99v450.43C950.53,552.85,941.33,564.95,930.03,564.95z M269.97,61.54
					c-10.75,0-19.5,11.66-19.5,25.99v450.43c0,14.33,8.75,25.99,19.5,25.99h660.06c10.75,0,19.5-11.66,19.5-25.99V87.53
					c0-14.33-8.75-25.99-19.5-25.99H269.97z"/>
			</g>
			<rect x="921.05" y="248.89" class="st2" width="1" height="122.07"/>
			<path class="st2" d="M268.3,353.04v-1c10.94,0,19.84-8.9,19.84-19.84v-61.03c0-10.94-8.9-19.84-19.84-19.84v-1
				c11.49,0,20.84,9.35,20.84,20.84v61.03C289.13,343.69,279.79,353.04,268.3,353.04z"/>
		</g>
		<g>
			<rect x="310.13" y="84.45" class="st0" width="580" height="455"/>
			<path class="st3" d="M890.13,539.95h-580c-0.28,0-0.5-0.22-0.5-0.5v-455c0-0.28,0.22-0.5,0.5-0.5h580c0.28,0,0.5,0.22,0.5,0.5
				v455C890.63,539.73,890.41,539.95,890.13,539.95z M310.63,538.95h579v-454h-579V538.95z"/>
		</g>
	</g>
	<g>
		<g>
			<rect x="333" y="150.75" class="st4" width="533" height="159"/>
			<path class="st6" d="M866.5,310.25h-534v-160h534V310.25z M333.5,309.25h532v-158h-532V309.25z"/>
		</g>
		<polygon class="st0" points="567,269.18 639.35,229.26 567,189.34 		"/>
	</g>
	<g>
		<g>
			<path class="st4" d="M368.13,107.88c-0.23-0.86-0.91-1.53-1.76-1.76c-1.56-0.42-7.79-0.42-7.79-0.42s-6.24,0-7.79,0.42
				c-0.86,0.23-1.53,0.91-1.76,1.76c-0.42,1.56-0.42,4.8-0.42,4.8s0,3.24,0.42,4.8c0.23,0.86,0.91,1.53,1.76,1.76
				c1.56,0.42,7.79,0.42,7.79,0.42s6.24,0,7.79-0.42c0.86-0.23,1.53-0.91,1.76-1.76c0.42-1.56,0.42-4.8,0.42-4.8
				S368.55,109.43,368.13,107.88z"/>
			<polygon class="st0" points="356.58,115.67 361.76,112.68 356.58,109.68 			"/>
		</g>
		<g>
			<g>
				<path class="st5" d="M377.55,118.4c-0.39-0.27-0.68-0.68-0.84-1.24c-0.17-0.56-0.25-1.31-0.25-2.24v-1.27
					c0-0.94,0.09-1.7,0.29-2.27c0.19-0.57,0.49-0.99,0.89-1.25c0.4-0.26,0.93-0.39,1.59-0.39c0.65,0,1.16,0.13,1.55,0.4
					c0.39,0.27,0.67,0.68,0.86,1.25c0.18,0.57,0.27,1.32,0.27,2.26v1.27c0,0.93-0.09,1.68-0.26,2.25c-0.18,0.57-0.46,0.98-0.86,1.24
					c-0.39,0.26-0.93,0.39-1.6,0.39C378.49,118.79,377.95,118.66,377.55,118.4z M379.76,117.03c0.11-0.29,0.16-0.75,0.16-1.4v-2.72
					c0-0.63-0.05-1.09-0.16-1.38c-0.11-0.29-0.3-0.43-0.58-0.43c-0.27,0-0.45,0.15-0.56,0.43c-0.11,0.29-0.16,0.75-0.16,1.38v2.72
					c0,0.65,0.05,1.11,0.16,1.4c0.1,0.29,0.29,0.43,0.57,0.43C379.46,117.45,379.65,117.31,379.76,117.03z"/>
				<path class="st5" d="M407.84,114.94v0.44c0,0.56,0.02,0.98,0.05,1.26c0.03,0.28,0.1,0.48,0.21,0.61
					c0.1,0.13,0.27,0.19,0.48,0.19c0.29,0,0.5-0.11,0.61-0.34c0.11-0.23,0.17-0.61,0.18-1.14l1.7,0.1c0.01,0.08,0.01,0.18,0.01,0.31
					c0,0.81-0.22,1.41-0.66,1.81c-0.44,0.4-1.07,0.6-1.88,0.6c-0.97,0-1.65-0.3-2.04-0.91c-0.39-0.61-0.58-1.55-0.58-2.82v-1.53
					c0-1.31,0.2-2.27,0.61-2.87c0.4-0.6,1.1-0.91,2.07-0.91c0.67,0,1.19,0.12,1.55,0.37c0.36,0.25,0.62,0.63,0.76,1.16
					c0.15,0.52,0.22,1.25,0.22,2.17v1.5H407.84z M408.09,111.26c-0.1,0.12-0.17,0.33-0.2,0.61c-0.03,0.28-0.05,0.71-0.05,1.28v0.63
					h1.44v-0.63c0-0.56-0.02-0.99-0.06-1.28c-0.04-0.29-0.11-0.49-0.21-0.61c-0.1-0.12-0.25-0.18-0.46-0.18
					C408.34,111.07,408.19,111.13,408.09,111.26z"/>
				<path class="st5" d="M372.76,114.77l-2.24-8.09h1.95l0.78,3.67c0.2,0.9,0.35,1.67,0.44,2.31h0.06c0.07-0.46,0.21-1.22,0.44-2.3
					l0.81-3.68h1.95l-2.27,8.09v3.88h-1.94V114.77z"/>
				<path class="st5" d="M388.26,109.91v8.74h-1.54l-0.17-1.07h-0.04c-0.42,0.81-1.05,1.21-1.88,1.21c-0.58,0-1.01-0.19-1.28-0.57
					c-0.28-0.38-0.41-0.97-0.41-1.78v-6.53h1.97v6.42c0,0.39,0.04,0.67,0.13,0.83c0.09,0.17,0.23,0.25,0.43,0.25
					c0.17,0,0.34-0.05,0.49-0.16c0.16-0.1,0.27-0.24,0.35-0.4v-6.94H388.26z"/>
				<path class="st5" d="M398.36,109.91v8.74h-1.54l-0.17-1.07h-0.04c-0.42,0.81-1.05,1.21-1.88,1.21c-0.58,0-1.01-0.19-1.28-0.57
					c-0.28-0.38-0.41-0.97-0.41-1.78v-6.53h1.97v6.42c0,0.39,0.04,0.67,0.13,0.83c0.09,0.17,0.23,0.25,0.43,0.25
					c0.17,0,0.34-0.05,0.49-0.16c0.16-0.1,0.27-0.24,0.35-0.4v-6.94H398.36z"/>
				<path class="st5" d="M393.61,108.27h-1.95v10.38h-1.93v-10.38h-1.95v-1.58h5.83V108.27z"/>
				<path class="st5" d="M404.87,111.31c-0.12-0.55-0.31-0.95-0.58-1.2c-0.27-0.25-0.63-0.37-1.1-0.37c-0.36,0-0.7,0.1-1.01,0.31
					c-0.31,0.2-0.56,0.47-0.73,0.81h-0.01l0-4.61h-1.9v12.41h1.63l0.2-0.83h0.04c0.15,0.29,0.38,0.53,0.68,0.7
					c0.3,0.17,0.64,0.26,1.01,0.26c0.67,0,1.16-0.31,1.47-0.92c0.31-0.61,0.47-1.57,0.47-2.87v-1.38
					C405.05,112.62,404.99,111.86,404.87,111.31z M403.07,114.87c0,0.64-0.03,1.14-0.08,1.5c-0.05,0.36-0.14,0.62-0.26,0.77
					c-0.12,0.15-0.29,0.23-0.5,0.23c-0.16,0-0.31-0.04-0.45-0.11c-0.14-0.08-0.25-0.19-0.34-0.34v-4.96
					c0.07-0.24,0.18-0.43,0.34-0.58c0.16-0.15,0.34-0.23,0.53-0.23c0.2,0,0.35,0.08,0.46,0.24c0.11,0.16,0.19,0.42,0.23,0.79
					c0.04,0.37,0.06,0.9,0.06,1.58V114.87z"/>
			</g>
		</g>
	</g>
	<path class="st2" d="M532,350.81h-92.96c-0.83,0-1.5-0.67-1.5-1.5s0.67-1.5,1.5-1.5H532c0.83,0,1.5,0.67,1.5,1.5
		S532.83,350.81,532,350.81z"/>
	<path class="st2" d="M696,366.81H439.04c-0.83,0-1.5-0.67-1.5-1.5s0.67-1.5,1.5-1.5H696c0.83,0,1.5,0.67,1.5,1.5
		S696.83,366.81,696,366.81z"/>
	<g>
		<path class="st2" d="M543.76,391.81h-50.54c-0.83,0-1.5-0.67-1.5-1.5s0.67-1.5,1.5-1.5h50.54c0.83,0,1.5,0.67,1.5,1.5
			S544.59,391.81,543.76,391.81z"/>
		<path class="st14" d="M544,418.31H439.04c-1.1,0-2-0.9-2-2s0.9-2,2-2H544c1.1,0,2,0.9,2,2S545.1,418.31,544,418.31z"/>
		<path class="st7" d="M480.16,396.65h-42c-0.55,0-1-0.45-1-1v-10.99c0-0.55,0.45-1,1-1h42c0.55,0,1,0.45,1,1v10.99
			C481.16,396.21,480.71,396.65,480.16,396.65z"/>
		<g>
			<path class="st0" d="M453.8,385.67h1.86l3.23,8.59h-1.79l-0.72-2.05h-3.29l-0.72,2.05h-1.79L453.8,385.67z M455.85,390.72
				l-0.76-2.16l-0.31-1.03h-0.1l-0.31,1.03l-0.77,2.16H455.85z"/>
			<path class="st0" d="M460.05,385.67h2.9c0.9,0,1.68,0.18,2.34,0.54s1.18,0.86,1.54,1.51c0.36,0.65,0.54,1.4,0.54,2.24
				c0,0.85-0.18,1.6-0.54,2.24s-0.87,1.15-1.54,1.51c-0.66,0.36-1.44,0.54-2.34,0.54h-2.9V385.67z M462.88,392.73
				c0.93,0,1.64-0.25,2.12-0.74c0.49-0.49,0.73-1.17,0.73-2.02c0-0.86-0.24-1.53-0.73-2.02c-0.49-0.49-1.2-0.74-2.12-0.74h-1.21
				v5.52H462.88z"/>
		</g>
	</g>
	<rect x="332.5" y="445.25" class="st15" width="534" height="75"/>
	<circle class="st15" cx="861.5" cy="328.25" r="2.5"/>
	<circle class="st15" cx="861.5" cy="336.25" r="2.5"/>
	<circle class="st15" cx="861.5" cy="344.25" r="2.5"/>
	<g>
		<path class="st16" d="M412.27,371.94c0-2.16-0.19-4.24-0.55-6.24h-28.73v11.8h16.41c-0.71,3.81-2.86,7.04-6.09,9.21v7.65h9.86
			C408.94,389.05,412.27,381.23,412.27,371.94z"/>
		<path class="st10" d="M382.99,401.75c8.23,0,15.14-2.73,20.19-7.39l-9.86-7.65c-2.73,1.83-6.22,2.91-10.33,2.91
			c-7.94,0-14.67-5.37-17.07-12.57h-10.19v7.9C360.75,394.91,371.07,401.75,382.99,401.75z"/>
		<path class="st12" d="M365.93,377.04c-0.61-1.83-0.96-3.78-0.96-5.8s0.35-3.96,0.96-5.79v-7.9h-10.19
			c-2.07,4.12-3.24,8.78-3.24,13.7c0,4.92,1.18,9.58,3.24,13.7L365.93,377.04z"/>
		<path class="st17" d="M382.99,352.88c4.48,0,8.5,1.54,11.66,4.56l8.75-8.75c-5.28-4.92-12.19-7.94-20.41-7.94
			c-11.92,0-22.24,6.83-27.26,16.8l10.19,7.9C368.32,358.24,375.05,352.88,382.99,352.88z"/>
		<path class="st18" d="M352.49,340.75h61v61h-61V340.75z"/>
	</g>
</g>
</svg>
