<?xml version="1.0" encoding="UTF-8"?>
<svg id="Layer_1" data-name="Layer 1" xmlns="http://www.w3.org/2000/svg" viewBox="0 0 534.679 1063.784">
  <defs>
    <style>
      .cls-1, .cls-2, .cls-3, .cls-4 {
        stroke-miterlimit: 10;
      }

      .cls-1, .cls-2, .cls-4 {
        stroke: #000;
      }

      .cls-1, .cls-4 {
        stroke-width: 1.064px;
      }

      .cls-1, .cls-5 {
        fill: #fff;
      }

      .cls-6 {
        fill: #e8eaed;
      }

      .cls-6, .cls-7, .cls-8, .cls-5 {
        stroke-width: 0px;
      }

      .cls-7 {
        fill: #4285f4;
      }

      .cls-2 {
        fill: #ea4335;
        stroke-width: 1.019px;
      }

      .cls-3 {
        stroke: #f8f9fa;
      }

      .cls-3, .cls-4 {
        fill: #1a1a1a;
      }

      .cls-8 {
        fill: red;
      }
    </style>
  </defs>
  <rect class="cls-4" x=".532" y=".532" width="533.614" height="1062.719" rx="13.815" ry="13.815"/>
  <path class="cls-2" d="M14.347.532h505.984c7.625,0,13.815,6.19,13.815,13.815v961.118H.532V14.347C.532,6.723,6.723.532,14.347.532Z"/>
  <rect class="cls-5" x="21.105" y="761.262" width="116.026" height="116.026" rx=".75" ry=".75"/>
  <rect class="cls-5" x="151.313" y="761.262" width="116.026" height="116.026" rx=".75" ry=".75"/>
  <rect class="cls-5" x="277.985" y="761.262" width="116.026" height="116.026" rx=".75" ry=".75"/>
  <rect class="cls-5" x="403.373" y="761.262" width="48.545" height="116.026" rx=".75" ry=".75"/>
  <rect class="cls-7" x="21.105" y="892.523" width="486.731" height="57.426" rx="28.713" ry="28.713"/>
  <circle class="cls-5" cx="71.548" cy="703.473" r="15.982"/>
  <path class="cls-5" d="M151.313,922.486h221.979c1.609,0,1.611-2.5,0-2.5h-221.979c-1.609,0-1.611,2.5,0,2.5h0Z"/>
  <line class="cls-1" x1="1.836" y1="975.465" x2="534.146" y2="975.465"/>
  <path class="cls-5" d="M461.308,720.705h46.529c1.609,0,1.611-2.5,0-2.5h-46.529c-1.609,0-1.611,2.5,0,2.5h0Z"/>
  <path class="cls-5" d="M98.724,704.723h46.529c1.609,0,1.611-2.5,0-2.5h-46.529c-1.609,0-1.611,2.5,0,2.5h0Z"/>
  <path class="cls-5" d="M22.543,746.059h381.957c5.158,0,10.326.096,15.484,0,.225-.004.451,0,.677,0,3.861,0,3.867-6,0-6H38.704c-5.158,0-10.326-.096-15.484,0-.225.004-.451,0-.677,0-3.861,0-3.867,6,0,6h0Z"/>
  <path class="cls-5" d="M461.308,579.854h46.529c1.609,0,1.611-2.5,0-2.5h-46.529c-1.609,0-1.611,2.5,0,2.5h0Z"/>
  <path class="cls-5" d="M461.308,422.811h46.529c1.609,0,1.611-2.5,0-2.5h-46.529c-1.609,0-1.611,2.5,0,2.5h0Z"/>
  <path class="cls-5" d="M461.308,861.556h46.529c1.609,0,1.611-2.5,0-2.5h-46.529c-1.609,0-1.611,2.5,0,2.5h0Z"/>
  <path class="cls-5" d="M45.723,1031.232h8.49l.071-11.984h9.81l-.02,11.984h8.336v-20.014l-13.343-10.007-13.343,10.007v20.014ZM42.876,1033.625v-24.285l16.19-12.142,16.19,12.142v24.285h-14.166v-12.142h-4.047v12.142h-14.166Z"/>
  <g>
    <path class="cls-5" d="M476.665,376.077v20.394c0,1.343,1.088,2.431,2.431,2.431h19.392c1.343,0,2.431-1.088,2.431-2.431v-1.323c0-.487.171-.952.447-1.353,1.086-1.574,1.341-2.885,1.347-3.844.011-1.856-.913-2.315-.835-4.27.086-2.166,1.262-2.654,1.299-4.455.019-.899-.245-2.122-1.453-3.612-.457-.564-1.159-.887-1.885-.887h-9.909c-1.502,0-2.645-1.349-2.398-2.831l1.099-6.591c.104-.624-.039-1.263-.399-1.783l-.52-.752c-.977-1.411-3.069-1.393-4.021.035l-6.615,9.923c-.266.399-.408.869-.408,1.348Z"/>
    <path class="cls-5" d="M468.632,375.976h5.566v22.926h-5.566c-1.472,0-2.666-1.195-2.666-2.666v-17.594c0-1.472,1.195-2.666,2.666-2.666Z"/>
  </g>
  <g>
    <path class="cls-5" d="M492.479,542.45v-20.394c0-1.343-1.088-2.431-2.431-2.431h-19.392c-1.343,0-2.431,1.088-2.431,2.431v1.323c0,.487-.171.952-.447,1.353-1.086,1.574-1.341,2.885-1.347,3.844-.011,1.856.913,2.315.835,4.27-.086,2.166-1.262,2.654-1.299,4.455-.019.899.245,2.122,1.453,3.612.457.564,1.159.887,1.885.887h9.909c1.502,0,2.645,1.349,2.398,2.831l-1.099,6.591c-.104.624.039,1.263.399,1.783l.52.752c.977,1.411,3.069,1.393,4.021-.035l6.615-9.923c.266-.399.408-.869.408-1.348Z"/>
    <path class="cls-5" d="M497.613,519.625h5.566v22.926h-5.566c-1.472,0-2.666-1.195-2.666-2.666v-17.594c0-1.472,1.195-2.666,2.666-2.666Z" transform="translate(998.125 1062.177) rotate(180)"/>
  </g>
  <path class="cls-6" d="M484.795,811.587v-7.58c0-.493.596-.739.944-.391,5.598,5.598,11.195,11.195,16.793,16.793.216.216.216.566,0,.782-5.567,5.567-11.135,11.135-16.702,16.702-.348.348-.944.102-.944-.391v-8.425c0-.276-.198-.515-.472-.552-1.242-.167-2.637-.235-4.151-.112-6.126.5-10.552,3.845-12.804,5.927-.338.312-.887.11-.927-.348-.254-2.872-.271-10.303,5.392-16.094,4.584-4.688,10.22-5.57,12.377-5.763.285-.026.494-.263.494-.549Z"/>
  <g>
    <path class="cls-5" d="M158.622,1012.171c.325-.197.659-.381.974-.594,2.494-1.684,3.666-4.063,3.32-7.023-.617-5.289-6.415-8.077-11.007-5.371-1.532.903-3.057,1.817-4.583,2.729-2.773,1.657-5.613,3.215-8.298,5.004-2.599,1.732-3.602,4.343-2.993,7.393.584,2.926,2.43,4.84,5.343,5.611.794.21,1.639.23,2.576.352-.364.23-.662.415-.956.606-2.593,1.69-3.864,4.832-3.149,7.774,1.164,4.785,6.457,7.127,10.719,4.666,4.304-2.486,8.576-5.03,12.814-7.627,4.384-2.686,4.524-9.125.316-12.087-1.514-1.066-3.209-1.473-5.076-1.434Z"/>
    <path class="cls-8" d="M158.622,1012.171c1.867-.038,3.562.368,5.076,1.434,4.207,2.962,4.068,9.401-.316,12.087-4.238,2.596-8.51,5.141-12.814,7.627-4.262,2.461-9.555.118-10.719-4.666-.716-2.943.556-6.084,3.149-7.774.294-.191.592-.376.956-.606-.937-.122-1.782-.142-2.576-.352-2.913-.771-4.759-2.685-5.343-5.611-.608-3.05.394-5.661,2.993-7.393,2.685-1.789,5.525-3.347,8.298-5.004,1.526-.912,3.051-1.826,4.583-2.729,4.592-2.706,10.39.081,11.007,5.371.345,2.96-.826,5.34-3.32,7.023-.315.213-.649.397-.974.594ZM147.776,1021.841c3.13-1.958,6.173-3.861,9.275-5.801-3.109-1.944-6.161-3.853-9.275-5.799v11.601Z"/>
    <path class="cls-5" d="M147.776,1021.841v-11.601c3.114,1.947,6.166,3.856,9.275,5.799-3.102,1.94-6.145,3.844-9.275,5.801Z"/>
  </g>
  <path class="cls-5" d="M360.058,1030.091c-.91,0-1.689-.324-2.337-.972s-.972-1.427-.972-2.337v-16.543c0-.91.324-1.689.972-2.337s1.427-.972,2.337-.972h26.468c.91,0,1.689.324,2.337.972s.972,1.427.972,2.337v16.543c0,.91-.324,1.689-.972,2.337s-1.427.972-2.337.972h-26.468ZM360.058,1026.783h26.468v-16.543h-26.468v16.543ZM369.983,1025.129l9.926-6.617-9.926-6.617v13.234ZM360.058,1005.277v-3.309h26.468v3.309h-26.468ZM365.02,1000.314v-3.309h16.543v3.309h-16.543ZM360.058,1026.783v-16.543,16.543Z"/>
  <path class="cls-5" d="M470.072,1020.433l12.298-7.906-12.298-7.906v15.812ZM463.922,1026.582c-.966,0-1.794-.344-2.482-1.032-.688-.688-1.032-1.515-1.032-2.482v-21.083c0-.966.344-1.794,1.032-2.482.688-.688,1.515-1.032,2.482-1.032h21.083c.966,0,1.794.344,2.482,1.032s1.032,1.515,1.032,2.482v21.083c0,.966-.344,1.794-1.032,2.482-.688.688-1.515,1.032-2.482,1.032h-21.083ZM463.922,1023.068h21.083v-21.083h-21.083v21.083ZM456.895,1033.61c-.966,0-1.794-.344-2.482-1.032-.688-.688-1.032-1.515-1.032-2.482v-24.597h3.514v24.597h24.597v3.514h-24.597ZM463.922,1001.985v21.083-21.083Z"/>
  <circle class="cls-3" cx="264.471" cy="1017.913" r="30.103"/>
  <path class="cls-5" d="M263.721,996.729v42.369c0,.965,1.5.967,1.5,0v-42.369c0-.965-1.5-.967-1.5,0h0Z"/>
  <path class="cls-5" d="M241.905,1018.663h45.132c.965,0,.967-1.5,0-1.5h-45.132c-.965,0-.967,1.5,0,1.5h0Z"/>
  <path class="cls-5" d="M230.048,499.976v-156.83c0-.998,1.101-1.604,1.947-1.075,42.072,26.307,83.369,52.129,125.38,78.398.796.497.798,1.658.003,2.156l-125.387,78.429c-.846.529-1.944-.079-1.944-1.077Z"/>
  <path class="cls-6" d="M475.681,687.682h17.783v-2.964h-17.783v2.964ZM475.681,683.236h17.783v-2.964h-17.783v2.964ZM475.681,678.79h17.783v-2.964h-17.783v2.964ZM499.391,699.537l-5.928-5.928h-20.747c-.815,0-1.513-.29-2.093-.871-.58-.58-.871-1.278-.871-2.093v-17.783c0-.815.29-1.513.871-2.093s1.278-.871,2.093-.871h23.711c.815,0,1.513.29,2.093.871s.871,1.278.871,2.093v26.674Z"/>
  <path class="cls-5" d="M37.087,62.798h69.136c1.609,0,1.611-2.5,0-2.5H37.087c-1.609,0-1.611,2.5,0,2.5h0Z"/>
  <path class="cls-5" d="M301.146,92.523h-11.371c0-.758-.028-1.516-.085-2.274s-.142-1.516-.256-2.274h11.712v-27.291h-36.388v2.615c-.758-.114-1.516-.199-2.274-.256-.758-.057-1.516-.085-2.274-.085v-2.274c0-1.251.445-2.322,1.336-3.212s1.962-1.336,3.212-1.336h36.388c1.251,0,2.322.445,3.212,1.336s1.336,1.962,1.336,3.212v27.291c0,1.251-.445,2.322-1.336,3.212s-1.962,1.336-3.212,1.336ZM260.21,92.523v-6.823c1.895,0,3.506.663,4.833,1.99,1.327,1.327,1.99,2.938,1.99,4.833h-6.823ZM271.581,92.523c0-3.146-1.109-5.828-3.326-8.045s-4.899-3.326-8.045-3.326v-4.548c4.435,0,8.197,1.545,11.286,4.634,3.089,3.089,4.634,6.851,4.634,11.286h-4.548ZM280.678,92.523c0-2.843-.54-5.506-1.62-7.988s-2.54-4.643-4.378-6.482c-1.838-1.838-3.999-3.298-6.482-4.378-2.483-1.08-5.145-1.62-7.988-1.62v-4.548c3.449,0,6.69.654,9.722,1.962,3.032,1.308,5.686,3.099,7.96,5.373s4.065,4.927,5.373,7.96,1.962,6.273,1.962,9.722h-4.548Z"/>
  <path class="cls-5" d="M396.342,97.071l-14.328-14.328c-1.137.91-2.445,1.63-3.923,2.161s-3.051.796-4.719.796c-4.131,0-7.628-1.431-10.49-4.293s-4.293-6.358-4.293-10.49,1.431-7.628,4.293-10.49,6.358-4.293,10.49-4.293,7.628,1.431,10.49,4.293,4.293,6.358,4.293,10.49c0,1.668-.265,3.241-.796,4.719s-1.251,2.786-2.161,3.923l14.328,14.328-3.184,3.184ZM373.373,81.152c2.843,0,5.259-.995,7.249-2.985s2.985-4.406,2.985-7.249-.995-5.259-2.985-7.249-4.406-2.985-7.249-2.985-5.259.995-7.249,2.985c-1.99,1.99-2.985,4.406-2.985,7.249s.995,5.259,2.985,7.249c1.99,1.99,4.406,2.985,7.249,2.985Z"/>
  <g>
    <circle class="cls-5" cx="470.783" cy="61.909" r="3.414"/>
    <circle class="cls-5" cx="470.783" cy="74.329" r="3.414"/>
    <circle class="cls-5" cx="470.783" cy="86.749" r="3.414"/>
  </g>
  <path class="cls-5" d="M418.952,24.79l16.081,20.033,15.485-20.033c-.605-.77-6.551-8.071-16.487-7.723-9.095.318-14.351,6.794-15.079,7.723Z"/>
  <polygon class="cls-5" points="483.941 17.904 457.87 43.975 483.941 43.975 483.941 17.904"/>
  <polygon class="cls-5" points="504.962 19.764 500.404 19.764 500.404 43.858 516.63 43.858 516.63 19.764 511.89 19.764 511.89 17.055 504.962 17.055 504.962 19.764"/>
</svg>