<?xml version="1.0" encoding="UTF-8"?><svg id="discovery_dds" xmlns="http://www.w3.org/2000/svg" viewBox="0 0 1200 600"><rect x="-20.5" y="-22.5" width="1246" height="643" style="fill:#fff;"/><g><path d="m950.03,74.78v450.43c0,14.64-8.95,26.49-20,26.49H269.97c-11.03,0-20-11.85-20-26.49V74.78c0-14.64,8.97-26.49,20-26.49h660.06c11.05,0,20,11.85,20,26.49Z" style="fill:#fff; fill-rule:evenodd; stroke:#3c4043;"/><path d="m921.55,358.21v-122.07" style="fill:none; stroke:#3c4043;"/><path d="m268.3,339.79c11.24,0,20.34-9.1,20.34-20.34v-61.03c0-11.24-9.1-20.34-20.34-20.34" style="fill:none; stroke:#3c4043;"/></g><rect x="310.5" y="71.5" width="580" height="455" style="fill:#fff; stroke:#44494c; stroke-linecap:round; stroke-linejoin:round;"/><g><g><path d="m368.13,95.13c-.23-.86-.91-1.53-1.76-1.76-1.56-.42-7.79-.42-7.79-.42,0,0-6.24,0-7.79.42-.86.23-1.53.91-1.76,1.76-.42,1.56-.42,4.8-.42,4.8,0,0,0,3.24.42,4.8.23.86.91,1.53,1.76,1.76,1.56.42,7.79.42,7.79.42,0,0,6.24,0,7.79-.42.86-.23,1.53-.91,1.76-1.76.42-1.56.42-4.8.42-4.8,0,0,0-3.24-.42-4.8Z" style="fill:red;"/><polygon points="356.58 102.92 361.76 99.93 356.58 96.94 356.58 102.92" style="fill:#fff;"/></g><g><path d="m377.55,105.65c-.39-.27-.68-.68-.84-1.24-.17-.56-.25-1.31-.25-2.24v-1.27c0-.94.09-1.7.29-2.27.19-.57.49-.99.89-1.25.4-.26.93-.39,1.59-.39s1.16.13,1.55.4c.39.27.67.68.86,1.25.18.57.27,1.32.27,2.26v1.27c0,.93-.09,1.68-.26,2.25-.18.57-.46.98-.86,1.24-.39.26-.93.39-1.6.39s-1.24-.13-1.63-.4Zm2.21-1.37c.11-.29.16-.75.16-1.4v-2.72c0-.63-.05-1.09-.16-1.38-.11-.29-.3-.43-.58-.43s-.45.15-.56.43c-.11.29-.16.75-.16,1.38v2.72c0,.65.05,1.11.16,1.4.1.29.29.43.57.43s.47-.14.58-.43Z" style="fill:#282828;"/><path d="m407.84,102.19v.44c0,.56.02.98.05,1.26.03.28.1.48.21.61.1.13.27.19.48.19.29,0,.5-.11.61-.34.11-.23.17-.61.18-1.14l1.7.1c0,.08.01.18.01.31,0,.81-.22,1.41-.66,1.81s-1.07.6-1.88.6c-.97,0-1.65-.3-2.04-.91-.39-.61-.58-1.55-.58-2.82v-1.53c0-1.31.2-2.27.61-2.87.4-.6,1.1-.91,2.07-.91.67,0,1.19.12,1.55.37.36.25.62.63.76,1.16.15.52.22,1.25.22,2.17v1.5h-3.29Zm.25-3.68c-.1.12-.17.33-.2.61-.03.28-.05.71-.05,1.28v.63h1.44v-.63c0-.56-.02-.99-.06-1.28-.04-.29-.11-.49-.21-.61-.1-.12-.25-.18-.46-.18s-.36.06-.46.19Z" style="fill:#282828;"/><path d="m372.76,102.02l-2.24-8.09h1.95l.78,3.67c.2.9.35,1.67.44,2.31h.06c.07-.46.21-1.22.44-2.3l.81-3.68h1.95l-2.27,8.09v3.88h-1.94v-3.88Z" style="fill:#282828;"/><path d="m388.26,97.16v8.74h-1.54l-.17-1.07h-.04c-.42.81-1.05,1.21-1.88,1.21-.58,0-1.01-.19-1.28-.57-.28-.38-.41-.97-.41-1.78v-6.53h1.97v6.42c0,.39.04.67.13.83.09.17.23.25.43.25.17,0,.34-.05.49-.16.16-.1.27-.24.35-.4v-6.94h1.97Z" style="fill:#282828;"/><path d="m398.36,97.16v8.74h-1.54l-.17-1.07h-.04c-.42.81-1.05,1.21-1.88,1.21-.58,0-1.01-.19-1.28-.57-.28-.38-.41-.97-.41-1.78v-6.53h1.97v6.42c0,.39.04.67.13.83.09.17.23.25.43.25.17,0,.34-.05.49-.16.16-.1.27-.24.35-.4v-6.94h1.97Z" style="fill:#282828;"/><path d="m393.61,95.52h-1.95v10.38h-1.93v-10.38h-1.95v-1.58h5.83v1.58Z" style="fill:#282828;"/><path d="m404.87,98.56c-.12-.55-.31-.95-.58-1.2-.27-.25-.63-.37-1.1-.37-.36,0-.7.1-1.01.31-.31.2-.56.47-.73.81h-.01v-4.61s-1.9,0-1.9,0v12.41h1.63l.2-.83h.04c.15.29.38.53.68.7.3.17.64.26,1.01.26.67,0,1.16-.31,1.47-.92.31-.61.47-1.57.47-2.87v-1.38c0-.98-.06-1.74-.18-2.3Zm-1.8,3.57c0,.64-.03,1.14-.08,1.5-.05.36-.14.62-.26.77-.12.15-.29.23-.5.23-.16,0-.31-.04-.45-.11-.14-.08-.25-.19-.34-.34v-4.96c.07-.24.18-.43.34-.58.16-.15.34-.23.53-.23.2,0,.35.08.46.24.11.16.19.42.23.79.04.37.06.9.06,1.58v1.13Z" style="fill:#282828;"/></g></g><rect x="405.73" y="144.95" width="149" height="104" rx="5" ry="5" style="fill:red; stroke:#3d4043; stroke-miterlimit:10;"/><polygon points="465.54 219.25 504.12 196.98 465.54 174.7 465.54 219.25" style="fill:#fff;"/><path d="m673.6,193.25h-50.54" style="fill:none; stroke:#3c4043; stroke-linecap:round; stroke-linejoin:round; stroke-width:3px;"/><path d="m796,219.25h-213.12" style="fill:none; stroke:#3c4043; stroke-linecap:round; stroke-linejoin:round; stroke-width:3px;"/><path d="m796,162.25h-213.12" style="fill:none; stroke:#3c4043; stroke-linecap:round; stroke-linejoin:round; stroke-width:3px;"/><g><rect x="406.92" y="264.98" width="150.84" height="104.47" rx="1" ry="1" style="fill:#fff; stroke:#44494c; stroke-linecap:round; stroke-linejoin:round;"/><path d="m796,285.89h-215.83" style="fill:none; stroke:#3c4043; stroke-linecap:round; stroke-linejoin:round;"/><path d="m687.55,301.25h-107.38" style="fill:none; stroke:#3c4043; stroke-linecap:round; stroke-linejoin:round;"/><path d="m796,342.14h-215.83" style="fill:none; stroke:#3c4043; stroke-linecap:round; stroke-linejoin:round;"/><path d="m796,353.82h-215.83" style="fill:none; stroke:#3c4043; stroke-linecap:round; stroke-linejoin:round;"/></g><g><rect x="406.92" y="384.98" width="150.84" height="104.47" rx="1" ry="1" style="fill:#fff; stroke:#44494c; stroke-linecap:round; stroke-linejoin:round;"/><path d="m796,405.89h-215.83" style="fill:none; stroke:#3c4043; stroke-linecap:round; stroke-linejoin:round;"/><path d="m687.55,421.25h-107.38" style="fill:none; stroke:#3c4043; stroke-linecap:round; stroke-linejoin:round;"/><path d="m796,462.14h-215.83" style="fill:none; stroke:#3c4043; stroke-linecap:round; stroke-linejoin:round;"/><path d="m796,473.82h-215.83" style="fill:none; stroke:#3c4043; stroke-linecap:round; stroke-linejoin:round;"/></g><path d="m611.14,193.83c0-.29.14-.72.43-.86.29-.29.57-.43,1-.43s.72.14,1,.43.43.57.43.86-.14.72-.43.86c-.29.29-.57.43-1,.43s-.72-.14-1-.43c-.29-.14-.43-.43-.43-.86Z" style="fill:#282828;"/><g><path d="m587.43,189.74l-3.32,10.13h-2.68l4.54-12.21h1.7l-.24,2.09h0Zm2.6,5.57v1.97h-6.44v-1.97h6.44Zm.16,4.55l-3.33-10.13-.27-2.09h1.72l4.56,12.21h-2.69.01Z"/><path d="m593.48,195.44v-.17c0-.69.07-1.32.23-1.89s.39-1.06.69-1.46.67-.73,1.12-.94.94-.33,1.5-.33,1,.11,1.4.33c.4.21.74.54,1.02.96s.52.89.69,1.45.3,1.16.37,1.82v.39c-.07.63-.2,1.22-.37,1.76s-.4,1.02-.69,1.42-.63.72-1.03.94-.87.33-1.4.33c-.56,0-1.07-.11-1.5-.34s-.8-.54-1.1-.96-.53-.9-.69-1.46-.23-1.17-.23-1.83Zm2.42-.17v.17c0,.37.03.73.09,1.04s.16.62.3.86.31.44.54.57.49.2.82.2c.41,0,.76-.1,1.02-.29s.47-.44.62-.77.23-.72.24-1.14v-1.1c-.01-.36-.07-.67-.14-.96s-.2-.53-.36-.73-.34-.36-.57-.47-.49-.17-.8-.17-.59.07-.8.21-.4.34-.54.59-.24.53-.3.87-.1.69-.1,1.07v.04Zm3.32,2.62v-10.89h2.43v12.88h-2.19l-.24-1.97h0Z"/></g></svg>